<?xml version="1.0" encoding="utf-8"?>
<!-- Generator: Adobe Illustrator 24.0.2, SVG Export Plug-In . SVG Version: 6.00 Build 0)  -->
<svg version="1.1" id="logo" xmlns="http://www.w3.org/2000/svg" xmlns:xlink="http://www.w3.org/1999/xlink" x="0px" y="0px"
	 viewBox="0 0 240.94 80.85" style="enable-background:new 0 0 240.94 80.85;" xml:space="preserve">
<path d="M3.65,55.66c5.49,5.12,10.68,7.68,15.56,7.68c2.49,0,4.62-0.8,6.4-2.41c1.77-1.6,2.66-3.55,2.66-5.84
	c0-1.84-0.63-3.48-1.89-4.91c-1.3-1.43-3.72-3.04-7.26-4.83c-5.01-2.47-8.83-5.23-11.46-8.26c-2.67-3.03-4-6.88-4-11.56
	c0-5.93,2.08-10.93,6.25-15.01c4.16-4.07,9.67-6.11,16.53-6.11c4.71,0,9.61,1.26,14.69,3.79v17.05c-4.5-4.33-8.82-6.5-12.95-6.5
	c-2.05,0-3.82,0.61-5.32,1.84c-1.5,1.23-2.25,2.71-2.25,4.45c0,1.71,0.61,3.17,1.84,4.4c1.19,1.23,3.41,2.56,6.65,3.99
	c5.36,2.39,9.42,5.12,12.18,8.19c2.76,3.11,4.15,7.29,4.15,12.54c0,6.62-2.38,12.27-7.14,16.94s-10.57,7.01-17.43,7.01
	c-5.32,0-11.06-1.6-17.2-4.81V55.66z"/>
<path d="M92.42,72.86c-6.25,3.52-12.08,5.27-17.48,5.27c-7.04,0-12.75-2.37-17.14-7.12c-4.39-4.74-6.59-10.82-6.59-18.22
	c0-7.17,2.08-13.24,6.23-18.22c4.15-4.98,9.69-7.47,16.63-7.47c6.15,0,11.07,2.13,14.76,6.4c3.69,4.27,5.53,9.98,5.53,17.15v4.04
	H68.1c0.75,3.28,2.03,5.73,3.85,7.37c1.81,1.64,4.16,2.46,7.03,2.46c2.22,0,4.26-0.49,6.1-1.48c1.85-0.99,4.29-2.76,7.34-5.32V72.86
	z M80.13,46.03v-1.64c0-2.22-0.58-4.11-1.75-5.68c-1.16-1.57-2.62-2.35-4.37-2.35c-2.06,0-3.64,0.8-4.75,2.41
	c-1.11,1.6-1.76,4.03-1.93,7.27H80.13z"/>
<path d="M102.96,5.59h16.28V77h-16.28V5.59z"/>
<path d="M130.25,5.59h16.28V77h-16.28V5.59z"/>
<path d="M192.59,4.42c2.22,0,4.23,0.8,6.04,2.41c1.81,1.6,2.71,3.69,2.71,6.25c0,2.42-0.86,4.47-2.58,6.14
	c-1.72,1.67-3.78,2.51-6.17,2.51c-2.46,0-4.53-0.86-6.22-2.58c-1.69-1.72-2.53-3.76-2.53-6.12c0-2.39,0.87-4.42,2.61-6.09
	C188.19,5.25,190.24,4.42,192.59,4.42z M184.35,28.22h16.28V77h-16.28V28.22z"/>
<path d="M215.53,13.53h13.51v14.69h8.09v11.93h-7.37v19.96c0,3.07,1.23,4.61,3.69,4.61c1.19,0,2.42-0.46,3.69-1.38v13.21
	c-3,1.06-6.06,1.59-9.16,1.59c-5.05,0-8.76-1.2-11.13-3.61c-2.37-2.41-3.56-6.13-3.56-11.19V40.15h-5.99V28.22h6.91L215.53,13.53z"
	/>
</svg>
